<svg xmlns="http://www.w3.org/2000/svg" width="42.791" height="36.058" viewBox="0 0 42.791 36.058">
  <g id="shopping-cart" transform="translate(0 -40.283)">
    <path id="Path_391" data-name="Path 391" d="M42.155,52.383a2.957,2.957,0,0,0-2.326-1.116H31.589L27.12,41.035a1.254,1.254,0,1,0-2.3,1l4.03,9.229H13.938l4.03-9.229a1.254,1.254,0,1,0-2.3-1L11.2,51.268H2.961A2.957,2.957,0,0,0,.635,52.383a2.887,2.887,0,0,0-.562,2.455l4.4,19.222a2.937,2.937,0,0,0,2.887,2.28H35.429a2.937,2.937,0,0,0,2.887-2.28l4.4-19.223a2.887,2.887,0,0,0-.562-2.455Zm-6.727,21.45H7.362a.448.448,0,0,1-.443-.332l-4.4-19.222a.383.383,0,0,1,.078-.333.455.455,0,0,1,.365-.171h7.146l-.328.752a1.254,1.254,0,1,0,2.3,1l.767-1.755h17.1l.767,1.755a1.254,1.254,0,0,0,2.3-1l-.328-.752H39.83a.455.455,0,0,1,.365.171.383.383,0,0,1,.078.333L35.872,73.5a.449.449,0,0,1-.444.332Z" transform="translate(0 0)" fill="#7e4196"/>
    <path id="Path_392" data-name="Path 392" d="M152.254,266.717A1.254,1.254,0,0,0,151,267.971v9.193a1.254,1.254,0,1,0,2.507,0v-9.193A1.254,1.254,0,0,0,152.254,266.717Z" transform="translate(-138.38 -207.51)" fill="#7e4196"/>
    <path id="Path_393" data-name="Path 393" d="M242.254,266.717A1.254,1.254,0,0,0,241,267.971v9.193a1.254,1.254,0,1,0,2.507,0v-9.193A1.254,1.254,0,0,0,242.254,266.717Z" transform="translate(-220.858 -207.51)" fill="#7e4196"/>
    <path id="Path_394" data-name="Path 394" d="M332.254,266.717A1.254,1.254,0,0,0,331,267.971v9.193a1.254,1.254,0,1,0,2.507,0v-9.193A1.254,1.254,0,0,0,332.254,266.717Z" transform="translate(-303.337 -207.51)" fill="#7e4196"/>
  </g>
</svg>
